<?xml version="1.0" standalone="no"?><!DOCTYPE svg PUBLIC "-//W3C//DTD SVG 1.1//EN" "http://www.w3.org/Graphics/SVG/1.1/DTD/svg11.dtd"><svg class="icon" width="200px" height="200.00px" viewBox="0 0 1024 1024" version="1.1" xmlns="http://www.w3.org/2000/svg"><path d="M554.666667 763.733333V810.666667h128v85.333333H341.333333v-85.333333h128v-46.933334c-145.066667-21.333333-256-145.066667-256-294.4s110.933333-273.066667 256-294.4V170.666667h85.333334v4.266666c145.066667 21.333333 256 145.066667 256 294.4s-110.933333 273.066667-256 294.4zM512 682.666667c119.466667 0 213.333333-93.866667 213.333333-213.333334s-93.866667-213.333333-213.333333-213.333333-213.333333 93.866667-213.333333 213.333333 93.866667 213.333333 213.333333 213.333334z m0-128c-46.933333 0-85.333333-38.4-85.333333-85.333334s38.4-85.333333 85.333333-85.333333 85.333333 38.4 85.333333 85.333333-38.4 85.333333-85.333333 85.333334z" fill="#444444" /></svg>