<?xml version="1.0" standalone="no"?><!DOCTYPE svg PUBLIC "-//W3C//DTD SVG 1.1//EN" "http://www.w3.org/Graphics/SVG/1.1/DTD/svg11.dtd"><svg class="icon" width="200px" height="200.00px" viewBox="0 0 1024 1024" version="1.1" xmlns="http://www.w3.org/2000/svg"><path d="M57.667368 20.830316A40.96 40.96 0 0 0 17.084632 61.413053v43.304421A40.96 40.96 0 0 0 57.667368 145.300211h892.820211a40.96 40.96 0 0 0 40.582737-40.582737V61.413053A40.96 40.96 0 0 0 950.487579 20.830316H57.667368z m0 40.582737h892.820211v43.304421H57.667368V61.413053zM143.225263 360.852211c-9.350737 0-16.922947 9.108211-16.922947 20.318315s7.572211 20.291368 16.922947 20.291369h720.653474c9.350737 0 16.949895-9.081263 16.949895-20.291369s-7.599158-20.318316-16.949895-20.318315H143.225263zM143.225263 274.593684c-9.350737 0-16.922947 9.081263-16.922947 20.291369s7.572211 20.291368 16.922947 20.291368h720.653474c9.350737 0 16.949895-9.081263 16.949895-20.291368s-7.599158-20.318316-16.949895-20.318316H143.225263zM143.225263 188.308211c-9.350737 0-16.922947 9.081263-16.922947 20.291368s7.572211 20.291368 16.922947 20.291368h720.653474c9.350737 0 16.949895-9.081263 16.949895-20.291368s-7.599158-20.291368-16.949895-20.291368H143.225263zM142.309053 706.155789c-9.323789 0.592842-16.464842 10.132211-15.97979 21.342316 0.485053 11.183158 8.407579 19.779368 17.731369 19.240421H863.932632c9.350737 0 16.922947-9.081263 16.922947-20.291368s-7.572211-20.291368-16.922947-20.291369H144.060632a14.093474 14.093474 0 0 0-1.751579 0zM143.225263 533.423158c-9.350737 0-16.922947 9.081263-16.922947 20.291368s7.572211 20.318316 16.922947 20.318316h720.653474c9.350737 0 16.949895-9.108211 16.949895-20.318316s-7.599158-20.291368-16.949895-20.291368H143.225263zM143.225263 447.137684c-9.350737 0-16.922947 9.108211-16.922947 20.318316s7.572211 20.291368 16.922947 20.291368h720.653474c9.350737 0 16.949895-9.081263 16.949895-20.291368s-7.599158-20.318316-16.949895-20.318316H143.225263zM142.309053 878.699789c-9.323789 0.619789-16.464842 10.159158-15.97979 21.342316 0.485053 11.210105 8.407579 19.806316 17.731369 19.267369H863.932632c9.350737 0 16.922947-9.081263 16.922947-20.291369s-7.572211-20.318316-16.922947-20.318316H144.060632a14.093474 14.093474 0 0 0-1.751579 0zM142.309053 792.441263c-9.323789 0.592842-16.464842 10.132211-15.97979 21.342316 0.485053 11.183158 8.407579 19.779368 17.731369 19.240421H863.932632c9.350737 0 16.922947-9.081263 16.922947-20.291368s-7.572211-20.291368-16.922947-20.291369H144.060632a14.093474 14.093474 0 0 0-1.751579 0zM142.309053 619.870316c-9.323789 0.592842-16.464842 10.132211-15.97979 21.342316 0.485053 11.183158 8.407579 19.779368 17.731369 19.240421H863.932632c9.350737 0 16.922947-9.081263 16.922947-20.291369s-7.572211-20.291368-16.922947-20.291368H144.060632a14.093474 14.093474 0 0 0-1.751579 0z" fill="#000000" /><path d="M118.622316 125.089684v808.879158c0 7.114105 1.455158 13.850947 3.718737 20.210526H72.326737c-27.055158 0-27.055158 40.636632 0 40.636632h863.474526c27.082105 0 27.082105-40.609684 0-40.609684h-50.014316c2.290526-6.386526 3.718737-13.123368 3.718737-20.210527V125.062737c-2.452211-9.189053-39.989895-26.462316-40.582737 0v808.879158c0 11.587368-8.623158 20.210526-20.210526 20.210526H179.415579a19.671579 19.671579 0 0 1-20.210526-20.210526V125.089684c-15.548632-8.973474-29.857684-18.485895-40.582737 0z" fill="#000000" /></svg>