<?xml version="1.0" standalone="no"?><!DOCTYPE svg PUBLIC "-//W3C//DTD SVG 1.1//EN" "http://www.w3.org/Graphics/SVG/1.1/DTD/svg11.dtd"><svg class="icon" width="200px" height="200.00px" viewBox="0 0 1024 1024" version="1.1" xmlns="http://www.w3.org/2000/svg"><path d="M255.774873 255.842922l319.605132 0L575.380004 64.079434 64.010361 64.079434l0 830.974775 511.369643 0L575.380004 703.290721 255.774873 703.290721 255.774873 255.842922zM511.460206 767.212566l0 63.920822L127.931183 831.133388 127.931183 128.000256l383.528 0 0 63.920822L191.852004 191.921078l0 575.290465L511.460206 767.211543zM575.378981 447.606411 575.378981 319.763744 511.460206 319.763744 511.460206 383.685589 447.537338 383.685589 447.537338 447.606411 383.614469 447.606411 383.614469 511.527233 447.537338 511.527233 447.537338 575.448054 511.460206 575.448054 511.460206 639.369899 575.378981 639.369899 575.378981 511.527233 958.905958 511.527233 958.905958 447.606411Z" /></svg>