<?xml version="1.0" standalone="no"?><!DOCTYPE svg PUBLIC "-//W3C//DTD SVG 1.1//EN" "http://www.w3.org/Graphics/SVG/1.1/DTD/svg11.dtd"><svg class="icon" width="200px" height="200.00px" viewBox="0 0 1024 1024" version="1.1" xmlns="http://www.w3.org/2000/svg"><path d="M767.142469 703.290721 447.538361 703.290721l0 191.763488 511.369643 0L958.908004 64.079434 447.538361 64.079434l0 191.763488 319.604108 0L767.142469 703.290721zM831.065338 767.212566 831.065338 191.922101 511.458159 191.922101l0-63.920822 383.528 0L894.986159 831.132364 511.458159 831.132364l0-63.920822L831.065338 767.211543zM447.538361 447.606411 447.538361 319.763744 511.458159 319.763744 511.458159 383.685589 575.380004 383.685589 575.380004 447.606411 639.301849 447.606411 639.301849 511.527233 575.380004 511.527233 575.380004 575.448054 511.458159 575.448054 511.458159 639.369899 447.538361 639.369899 447.538361 511.527233 64.011384 511.527233 64.011384 447.606411Z" /></svg>