<?xml version="1.0" standalone="no"?><!DOCTYPE svg PUBLIC "-//W3C//DTD SVG 1.1//EN" "http://www.w3.org/Graphics/SVG/1.1/DTD/svg11.dtd"><svg class="icon" width="200px" height="200.00px" viewBox="0 0 1024 1024" version="1.1" xmlns="http://www.w3.org/2000/svg"><path d="M1021.12 430.368l-3.68-22.496a224.96 224.96 0 0 0-12.928-46.848l-107.04-269.664a42.944 42.944 0 0 0-39.904-27.104H166.4a42.944 42.944 0 0 0-39.936 27.104L19.52 361.024a224.896 224.896 0 0 0-12.928 46.848l-3.648 22.496A224.928 224.928 0 0 0 0 466.4v449.92a43.424 43.424 0 0 0 43.424 43.424h937.152A43.424 43.424 0 0 0 1024 916.32v-449.92a224.928 224.928 0 0 0-2.88-36.032zM79.36 383.744l101.344-255.488h662.592l101.376 255.488 0.192 0.512H79.136zM960 448.256v447.488H64v-448h896z" fill="#575869" /><path d="M374.912 562.176h480v64h-480zM374.912 717.76h320v64h-320z" fill="#575869" /></svg>