<?xml version="1.0" standalone="no"?><!DOCTYPE svg PUBLIC "-//W3C//DTD SVG 1.1//EN" "http://www.w3.org/Graphics/SVG/1.1/DTD/svg11.dtd"><svg class="icon" width="200px" height="200.00px" viewBox="0 0 1024 1024" version="1.1" xmlns="http://www.w3.org/2000/svg"><path d="M433.65 894.897H241.807c-48.61 0-88.157-39.547-88.157-88.157V231.055c0-48.61 39.547-88.157 88.157-88.157h480.685c48.61 0 88.157 39.547 88.157 88.157v227.843c0 13.255-10.745 24-24 24s-24-10.745-24-24V231.055c0-22.143-18.015-40.157-40.157-40.157H241.807c-22.143 0-40.157 18.015-40.157 40.157V806.74c0 22.143 18.015 40.157 40.157 40.157H433.65c13.255 0 24 10.745 24 24s-10.745 24-24 24zM305.65 302.897h368.709v48H305.65zM305.65 494.897h246.768v48H305.65zM705.024 903.796c-35.724 0-69.628-5.736-95.467-16.153-43.018-17.341-49.44-41.774-49.44-54.796h42c0.244 1.46 5.564 9.211 25.512 16.768 20.735 7.855 48.223 12.182 77.396 12.182s56.66-4.326 77.396-12.182c19.947-7.557 25.268-15.308 25.516-16.821l41.996 0.054c0 13.021-6.423 37.455-49.44 54.796-25.841 10.416-59.745 16.152-95.469 16.152zM705.024 805.696c-35.724 0-69.628-5.736-95.467-16.153-43.018-17.341-49.44-41.775-49.44-54.797h42c0.244 1.46 5.562 9.211 25.509 16.768 20.736 7.856 48.224 12.183 77.398 12.183s56.662-4.326 77.398-12.183c19.946-7.557 25.265-15.308 25.513-16.821l41.996 0.054c0 13.021-6.423 37.456-49.44 54.797-25.839 10.416-59.743 16.152-95.467 16.152zM705.024 707.597c-35.724 0-69.628-5.736-95.467-16.153-43.018-17.342-49.44-41.775-49.44-54.797s6.423-37.456 49.44-54.797c25.839-10.417 59.743-16.153 95.467-16.153s69.628 5.736 95.467 16.153c43.018 17.341 49.44 41.775 49.44 54.797s-6.423 37.455-49.44 54.797c-25.839 10.416-59.743 16.153-95.467 16.153z m-102.9-70.951c0.36 1.636 5.784 9.297 25.504 16.769 20.736 7.855 48.224 12.182 77.396 12.182s56.66-4.326 77.396-12.182c19.72-7.472 25.144-15.133 25.504-16.769-0.36-1.636-5.782-9.297-25.502-16.768-20.736-7.856-48.224-12.183-77.398-12.183s-56.662 4.326-77.398 12.183c-19.72 7.472-25.142 15.133-25.502 16.768zM560.567 636.646h42v196.2h-42zM808.067 637.097h42v196.199h-42z" /></svg>