<?xml version="1.0" standalone="no"?><!DOCTYPE svg PUBLIC "-//W3C//DTD SVG 1.1//EN" "http://www.w3.org/Graphics/SVG/1.1/DTD/svg11.dtd"><svg class="icon" width="200px" height="200.00px" viewBox="0 0 1024 1024" version="1.1" xmlns="http://www.w3.org/2000/svg"><path d="M512 85.333333L145.079467 296.2048A8.5376 8.5376 0 0 0 140.8 303.6032V725.333333l371.2 213.333334 371.2-213.333334V298.666667l-371.2-213.333334z m328.533333 618.666667l-328.533333 192-328.533333-192V324.898133a8.533333 8.533333 0 0 1 4.228266-7.368533L512 128l328.533333 192v384z" fill="#666666" /><path d="M524.8 925.866667h-25.6a8.533333 8.533333 0 0 1-8.533333-8.533334v-409.6a8.533333 8.533333 0 0 1 8.533333-8.533333h25.6a8.533333 8.533333 0 0 1 8.533333 8.533333v409.6a8.533333 8.533333 0 0 1-8.533333 8.533334z" fill="#666666" /><path d="M536.750933 509.448533l-12.8 22.1696a8.533333 8.533333 0 0 1-11.656533 3.1232l-354.722133-204.8a8.533333 8.533333 0 0 1-3.1232-11.656533l12.8-22.1696a8.533333 8.533333 0 0 1 11.656533-3.1232l354.722133 204.8a8.529067 8.529067 0 0 1 3.1232 11.656533z" fill="#666666" /><path d="M865.284267 291.848533l12.8 22.1696a8.533333 8.533333 0 0 1-3.1232 11.656534l-354.722134 204.8a8.533333 8.533333 0 0 1-11.656533-3.1232l-12.8-22.1696a8.533333 8.533333 0 0 1 3.1232-11.656534l354.722133-204.8a8.533333 8.533333 0 0 1 11.656534 3.1232zM401.2928 580.6848l-145.514667-84.014933a8.533333 8.533333 0 0 1-4.266666-7.389867v-25.774933c0-6.570667 7.112533-10.6752 12.8-7.389867l145.514666 84.014933a8.533333 8.533333 0 0 1 4.266667 7.389867v25.774933c0 6.570667-7.112533 10.6752-12.8 7.389867z" fill="#666666" /></svg>