<?xml version="1.0" standalone="no"?><!DOCTYPE svg PUBLIC "-//W3C//DTD SVG 1.1//EN" "http://www.w3.org/Graphics/SVG/1.1/DTD/svg11.dtd"><svg class="icon" width="200px" height="200.00px" viewBox="0 0 1024 1024" version="1.1" xmlns="http://www.w3.org/2000/svg"><path d="M492.862682 477.511893c-111.446732 0-202.118729-90.671997-202.118729-202.118729S381.41595 73.274435 492.862682 73.274435c111.446732 0 202.118729 90.671997 202.118729 202.118729S604.309414 477.511893 492.862682 477.511893zM492.862682 118.303418c-86.578453 0-157.089746 70.511293-157.089746 157.089746S406.284229 432.48291 492.862682 432.48291c86.578453 0 157.089746-70.511293 157.089746-157.089746S579.441135 118.303418 492.862682 118.303418zM173.770937 796.296622c-12.485309 0-22.514491-10.029182-22.514491-22.514491 0-46.154707 9.005797-90.876674 26.812712-132.937837 17.192884-40.730762 41.856486-77.163302 73.172097-108.581251 31.315611-31.315611 67.85049-55.979212 108.581251-73.172097 42.163502-17.806916 86.885469-26.812712 132.937837-26.812712 54.853488 0 107.148511 12.587647 155.657006 37.455926 11.052568 5.628623 15.453128 19.239656 9.722167 30.292225s-19.239656 15.453128-30.292225 9.722167c-42.061163-21.593444-87.4995-32.441335-135.086948-32.441335-163.537078 0-296.577254 133.040176-296.577254 296.577254C196.285429 786.165101 186.153908 796.296622 173.770937 796.296622zM741.75015 566.546472l-171.928843 0c-12.38297 0-22.514491-10.131521-22.514491-22.514491l0 0c0-12.38297 10.131521-22.514491 22.514491-22.514491l171.928843 0c12.38297 0 22.514491 10.131521 22.514491 22.514491l0 0C764.264641 556.414951 754.13312 566.546472 741.75015 566.546472zM785.448731 683.724166l-216.957825 0c-12.38297 0-22.514491-10.131521-22.514491-22.514491l0 0c0-12.38297 10.131521-22.514491 22.514491-22.514491l216.957825 0c12.38297 0 22.514491 10.131521 22.514491 22.514491l0 0C807.963222 673.592644 797.831701 683.724166 785.448731 683.724166zM852.787527 801.925245l-282.454527 0c-12.38297 0-22.514491-10.131521-22.514491-22.514491l0 0c0-12.38297 10.131521-22.514491 22.514491-22.514491l282.454527 0c12.38297 0 22.514491 10.131521 22.514491 22.514491l0 0C875.302019 791.793724 865.170498 801.925245 852.787527 801.925245z" fill="#272636" /></svg>